PathFileType	4	(X/Y/Z)	D:\Long Term Storage\D'Arcy Smith\Coord20.trc
DataRate	CameraRate	NumFrames	NumMarkers	Units	OrigDataRate	OrigDataStartFrame	OrigNumFrames
120.00	120.00	      125	4	mm	120.00	1210	      4839
Frame#	Time	M1			M2			M3			M4			
		X1	Y1	Z1	X2	Y2	Z2	X3	Y3	Z3	X4	Y4	Z4	

1210	10.075	601.23773	418.70251	576.79218	1003.32654	497.08621	599.82153							
1211	10.083	603.96082	409.97333	563.52942	1000.19019	489.13464	595.44464							
1212	10.092	606.65350	401.20911	548.91724	997.40771	480.76581	590.95728							
1213	10.100	609.19238	392.88739	533.28888	993.47485	471.56284	583.32050							
1214	10.108	611.61115	385.04016	516.49933	990.21210	462.02164	576.89984							
1215	10.117	613.83514	377.69992	499.08618	986.93494	452.11349	568.89850							
1216	10.125	615.80414	371.07352	480.35031	983.04688	441.97266	558.71936							
1217	10.133	617.63806	365.24872	459.37564	979.76282	432.00885	548.79730							
1218	10.142	619.20508	360.19907	439.28674	976.53845	421.84531	538.23065							
1219	10.150	620.29840	356.54434	419.42310	973.68018	412.20654	527.19440							
1220	10.158	621.76984	352.95370	396.83148	971.02698	403.14996	516.04364							
1221	10.167	622.61646	351.50632	376.24860	969.03485	394.79843	505.29248							
1222	10.175	623.24042	350.82614	354.64514	967.11041	387.24042	493.90582							
1223	10.183	623.57385	351.45389	332.70615	965.38025	380.39328	481.90546							
1224	10.192	623.81702	353.27454	310.72571	964.76392	374.94489	472.26602							
1225	10.200	623.67743	356.15863	288.95654	964.19550	370.22119	461.88489							
1226	10.208	623.52789	360.49939	267.16974	964.56250	366.85730	453.51379							
1227	10.217	623.15472	365.67569	245.81561	965.52301	364.29587	447.01587							
1228	10.225	622.59918	371.97549	224.94380	966.72235	362.58011	440.80658							
1229	10.233	622.04016	379.16309	204.72321	968.73566	361.95392	437.11826							
1230	10.242	621.54675	387.68430	185.04367	971.37207	362.06198	434.82278							
1231	10.250	620.99695	396.23926	166.86771	974.45422	362.79929	434.73288							
1232	10.258	620.25189	405.50427	149.42252	977.34772	363.78214	434.61166							
1233	10.267	619.51721	415.08832	133.20297	980.71680	365.41943	436.24588							
1234	10.275	618.97717	425.10001	118.12958	983.90820	367.14563	438.92441							
1235	10.283	618.43097	435.93613	103.78475	987.05884	369.08505	442.09009							
1236	10.292	617.92218	446.22141	90.77119	990.43463	371.10306	446.92145							
1237	10.300	617.63177	456.39426	78.98895	992.90698	373.04520	450.66745							
1238	10.308	617.45874	466.63550	68.07098	995.46808	375.07626	454.98489							
1239	10.317	617.56201	475.48117	58.72526	997.47101	377.06790	459.33179							
1240	10.325	617.88208	484.26260	50.28799	999.08978	378.90604	464.06439							
1241	10.333	618.31995	492.56436	42.67521	1000.49335	380.75809	468.64297							
1242	10.342	619.03821	500.06339	36.06005	1001.22601	382.53549	472.72748							
1243	10.350	619.93634	506.84586	30.26497	1001.55597	384.33151	477.10266							
1244	10.358	621.07611	512.46509	25.44627	1001.48322	385.95331	480.45056							
1245	10.367	622.42896	517.62506	21.11617	1000.78223	387.64203	484.06000							
1246	10.375	624.16125	520.64233	18.23273	999.86743	389.16904	487.05194							
1247	10.383	626.07227	522.94128	16.13144	998.53418	390.57965	489.92410							
1248	10.392	628.13141	523.75970	14.66174	996.75665	392.07327	493.35342							
1249	10.400	630.65906	523.37927	14.07356	994.74774	393.21036	495.65027							
1250	10.408	632.87421	521.26648	14.83891	992.53809	394.28134	497.72989							
1251	10.417	635.30627	517.80725	16.32562	990.35284	395.34998	498.72806							
1252	10.425	637.81061	512.97327	18.92829	987.79114	396.41049	500.36557							
1253	10.433	640.39105	506.83548	22.75799	985.17212	397.38770	502.46829							
1254	10.442	643.10724	499.02383	27.94016	982.94800	398.44745	504.44125							
1255	10.450	645.72064	489.62137	34.55077	980.31427	399.57761	507.50342							
1256	10.458	648.61157	478.95209	43.03606	978.14960	400.73105	508.38168							
1257	10.467	651.42981	466.89832	52.96926	976.08838	402.03955	510.99207							
1258	10.475	654.11017	454.12708	64.73233	974.51776	403.60034	513.63489							
1259	10.483	656.71173	440.71521	78.15635	973.12024	405.34222	517.67706							
1260	10.492	659.08960	427.14615	93.02737	971.57135	407.32062	519.31683							
1261	10.500	661.32690	412.90289	109.85345	970.44934	409.46539	522.90210							
1262	10.508	662.94855	399.65167	127.55522	969.73096	411.96036	526.35223							
1263	10.517	663.93921	386.24005	146.89798	969.17914	415.00400	530.04413							
1264	10.525	664.87292	374.26242	166.97305	968.93872	417.94131	534.11902							
1265	10.533	664.94891	363.16431	188.36339	968.79010	420.99353	538.42523							
1266	10.542	664.60291	353.35471	210.61453	968.82007	424.34290	541.89746							
1267	10.550	663.65875	344.98099	233.61087	969.04376	427.61935	546.30023							
1268	10.558	662.21204	338.12296	257.28299	969.13318	431.09882	549.84552							
1269	10.567	659.95715	332.83401	281.94571	969.42993	434.26450	553.93848							
1270	10.575	657.63275	329.41055	306.09689	969.75397	437.77963	557.36804							
1271	10.583	654.53711	327.02982	330.69958	970.07959	441.12729	561.11652							
1272	10.592	650.96686	325.72504	355.65292	970.55853	444.50516	564.64166							
1273	10.600	647.23749	326.71725	379.37518	970.74274	447.43848	567.09583							
1274	10.608	643.07660	328.70264	403.23425	970.98389	450.66116	569.82446							
1275	10.617	638.40234	331.57751	426.72818	971.47784	454.19299	574.28918							
1276	10.625	634.07129	336.81400	448.38876	971.81409	457.04099	577.22809							
1277	10.633	629.11890	342.52911	469.22107	972.06183	459.93723	579.80573							
1278	10.642	624.16351	349.41190	491.41376	972.37683	462.26559	583.29279							
1279	10.650	618.81433	357.70291	510.27823	972.42395	464.85165	584.73547							
1280	10.658	613.50085	366.01633	528.39679	972.38245	466.89481	586.22394							
1281	10.667	608.09540	375.74063	544.67291	972.40082	468.91360	588.48102							
1282	10.675	602.53119	385.90518	559.47577	972.87244	470.75449	591.15887							
1283	10.683	597.61798	397.17084	572.00024	972.34027	472.22473	590.97290							
1284	10.692	592.69830	407.69183	584.30066	972.35406	473.50781	592.20563							
1285	10.700	588.12421	418.17847	594.55035	972.27423	474.53067	592.88898							
1286	10.708	584.08600	427.88535	603.13385	972.19458	475.33752	593.70306							
1287	10.717	580.43225	436.49091	609.98877	972.04083	475.90411	594.17474							
1288	10.725	577.66809	444.02643	615.39630	972.04462	476.18130	594.23413							
1289	10.733	575.56549	450.04315	619.38251	972.01880	476.33777	594.44153							
1290	10.742	574.36383	454.59592	621.56476	972.05017	476.12219	594.30292							
1291	10.750	573.98492	457.44653	622.27063	972.22876	475.79089	594.13495							
1292	10.758	574.37018	458.74979	621.55908	972.46796	475.20071	593.74982							
1293	10.767	575.42761	458.30569	619.14520	972.82062	474.55835	593.44666							
1294	10.775	577.08374	456.31418	615.13867	973.32678	473.76035	593.19922							
1295	10.783	579.21167	452.90344	609.47986	973.75977	472.92886	592.68518							
1296	10.792	581.83398	447.76044	602.15979	974.29602	471.89423	591.90503							
1297	10.800	584.93915	441.51056	593.10852	974.98767	470.69202	591.02063							
1298	10.808	588.47949	434.06216	581.79022	975.85217	469.57574	590.51428							
1299	10.817	592.20679	425.83362	568.53979	976.68164	468.44183	589.49353							
1300	10.825	596.29932	417.15652	553.38806	977.45551	467.01923	588.00916							
1301	10.833	600.51880	408.24332	536.10706	978.13965	465.53479	587.09332							
1302	10.842	604.86145	399.44611	517.57617	978.63580	463.94952	585.53442							
1303	10.850	608.81006	391.89096	496.05389	979.10120	462.06677	583.67627							
1304	10.858	612.46533	384.45795	473.98120	979.35437	460.21155	581.52960							
1305	10.867	616.13831	378.29309	450.72739	979.46191	457.86533	579.13776							
1306	10.875	619.48785	374.17596	423.80600	979.60333	455.24039	577.59180							
1307	10.883	622.41559	370.85767	398.48837	978.40070	452.21713	572.30438							
1308	10.892	624.63733	369.06290	372.52548	977.39911	448.58841	568.27899							
1309	10.900	626.45245	368.85312	345.95807	976.17932	444.87167	562.99219							
1310	10.908	627.70062	369.58765	319.27826	974.63214	440.27524	557.80273							
1311	10.917	628.38678	372.35574	292.68402	972.62000	435.40256	551.32782							
1312	10.925	629.26758	376.57291	265.97974	970.24207	429.76904	543.47156							
1313	10.933	629.39252	382.74344	239.82805	967.59906	423.95279	535.42206							
1314	10.942	628.64655	389.10068	214.84174	964.43115	417.81537	525.07544							
1315	10.950	627.92877	397.86661	189.97827	961.23828	411.24118	514.64447							
1316	10.958	626.56378	407.08035	166.45203	957.56464	404.49933	502.56445							
1317	10.967	624.80634	417.14749	143.88475	953.65161	397.60110	489.40158							
1318	10.975	622.82611	427.90878	122.74361	949.41992	390.40808	473.91275							
1319	10.983	620.50311	439.50244	102.82292	945.32245	384.34000	457.73071							
1320	10.992	617.88733	450.82690	85.01813	940.69800	377.48688	441.39621							
1321	11.000	615.29828	462.03455	68.95618	936.37555	372.29297	422.18655							
1322	11.008	612.76898	472.96329	55.24418	931.91693	366.40302	403.93478							
1323	11.017	610.10406	483.10034	43.58744	927.52557	362.85178	381.75253							
1324	11.025	607.55090	492.19205	34.18560	923.13922	359.60352	360.42456							
1325	11.033	604.97198	499.96527	26.67087	918.98132	357.42160	337.90753							
1326	11.042	602.99683	505.90891	21.64280	914.97272	356.77618	314.60013							
1327	11.050	601.91943	509.42514	18.96302	911.23602	357.66095	290.46008							
1328	11.058	601.74469	510.88211	18.33523	908.26324	359.61124	266.69037							
1329	11.067	602.22736	510.25735	19.39754	905.58514	363.13519	242.58290							
1330	11.075	603.32043	507.74051	21.99861	903.52216	367.88702	219.23424							
1331	11.083	605.04169	503.72971	26.20221	901.94141	374.16171	196.04321							
1332	11.092	607.54156	498.25555	31.70370	901.06567	381.77829	171.47739							
1333	11.100	610.30664	491.70740	38.38229	900.59009	390.84833	149.70819							
1334	11.108	613.53345	484.09363	46.07308	900.86255	400.89496	128.81079							
